<?xml version="1.0" standalone="no"?>
<!DOCTYPE svg PUBLIC "-//W3C//DTD SVG 20010904//EN"
 "http://www.w3.org/TR/2001/REC-SVG-20010904/DTD/svg10.dtd">
<svg version="1.0" xmlns="http://www.w3.org/2000/svg"
 width="423.000000pt" height="423.000000pt" viewBox="0 0 423.000000 423.000000"
 preserveAspectRatio="xMidYMid meet">
<metadata>
Created by potrace 1.14, written by Peter Selinger 2001-2017
</metadata>
<g transform="translate(0.000000,423.000000) scale(0.100000,-0.100000)"
fill="#000000" stroke="none">
<path d="M223 2464 c8 -13 -19 -27 -34 -18 -5 3 -9 0 -9 -6 0 -6 -3 -9 -7 -7
-10 6 -74 -28 -67 -36 3 -3 -4 -8 -15 -12 -12 -3 -21 -10 -21 -15 0 -5 -10
-18 -22 -30 -13 -12 -17 -20 -9 -20 10 0 11 -3 2 -13 -13 -17 -12 -87 2 -87 6
0 8 -3 4 -6 -11 -11 68 -94 89 -94 8 0 14 -5 14 -12 0 -6 3 -9 6 -5 4 3 19 0
34 -8 15 -8 31 -11 34 -7 4 3 11 0 16 -8 6 -10 10 -11 10 -3 0 7 7 10 15 7 8
-4 13 -9 11 -13 -5 -7 47 -14 92 -14 12 1 22 -4 22 -9 0 -6 6 -8 13 -5 7 3 21
-1 31 -9 11 -7 22 -12 25 -10 3 2 12 -2 19 -10 7 -8 10 -14 7 -14 -3 0 -1 -8
4 -18 9 -17 -10 -58 -22 -46 -3 3 -10 -4 -17 -15 -6 -12 -16 -19 -21 -15 -14
8 -59 13 -54 5 2 -4 -5 -7 -15 -7 -10 0 -16 4 -14 8 3 4 -4 8 -16 8 -26 0 -80
54 -80 80 0 11 -6 20 -12 21 -61 4 -78 3 -78 -1 0 -8 -48 -5 -57 3 -3 4 -12 2
-20 -5 -7 -6 -16 -8 -20 -5 -3 4 -12 2 -20 -4 -7 -6 -13 -7 -13 -2 0 5 -6 10
-13 10 -8 0 -13 -12 -13 -29 0 -15 4 -28 9 -28 5 0 7 -7 3 -15 -3 -8 -1 -15 4
-15 6 0 10 -5 10 -10 0 -20 63 -84 103 -105 19 -10 63 -25 87 -29 3 -1 10 -5
17 -9 6 -4 14 -1 16 5 4 10 6 9 6 -1 1 -11 4 -11 16 -1 8 7 15 8 15 3 0 -6 51
-10 130 -9 71 0 130 5 130 9 0 5 5 5 10 2 6 -4 17 -1 25 5 8 7 22 10 30 6 9
-3 13 -2 10 4 -3 6 0 10 8 10 8 0 18 7 21 16 3 8 10 12 16 9 5 -3 10 2 10 11
0 10 3 14 7 11 8 -9 42 61 43 88 0 16 2 17 9 6 6 -10 8 0 5 29 -2 24 -6 45 -9
48 -3 3 0 11 6 18 9 10 7 15 -5 20 -9 3 -14 9 -12 13 2 3 -14 23 -35 45 -21
21 -39 35 -39 30 0 -4 -8 1 -19 10 -10 9 -28 18 -40 19 -11 1 -21 5 -21 10 0
5 -7 7 -15 4 -8 -4 -17 -2 -20 4 -4 5 -11 7 -16 4 -5 -4 -9 -2 -9 4 0 5 -8 8
-19 6 -10 -2 -31 3 -45 10 -15 8 -24 10 -21 5 4 -6 1 -10 -4 -10 -6 0 -11 4
-11 8 0 5 -14 9 -31 10 -17 0 -38 7 -47 14 -12 9 -14 10 -8 1 4 -7 2 -13 -3
-13 -6 0 -11 5 -11 10 0 6 -6 10 -14 10 -8 0 -18 10 -21 22 -9 26 30 60 59 52
11 -4 16 -2 12 4 -4 7 4 8 25 2 18 -5 35 -7 40 -5 9 6 70 -65 64 -75 -2 -4 36
-6 85 -6 50 1 90 4 90 8 0 3 9 4 20 1 22 -6 56 22 39 32 -6 4 -8 13 -5 21 3 8
1 14 -4 14 -6 0 -10 7 -10 15 0 8 -9 19 -20 25 -11 6 -20 17 -20 25 0 8 -8 15
-18 15 -10 0 -26 10 -36 21 -13 15 -20 18 -25 10 -6 -9 -11 -8 -20 3 -7 8 -19
12 -27 9 -8 -3 -14 1 -14 8 0 11 -3 11 -10 -1 -5 -8 -10 -10 -10 -4 0 7 -39
11 -120 11 -70 0 -120 -4 -120 -10 0 -5 -8 -3 -17 4 -9 8 -14 9 -10 3z"/>
<path d="M3490 2427 c0 -4 -4 -6 -8 -3 -5 3 -9 -1 -9 -9 0 -8 5 -15 11 -15 6
0 4 -5 -4 -10 -13 -9 -13 -10 0 -10 9 0 11 -3 5 -8 -14 -10 -17 -32 -4 -32 8
0 8 -4 0 -14 -7 -8 -8 -17 -4 -19 7 -5 9 -51 3 -67 -1 -3 -2 -9 -1 -13 1 -4
-8 -3 -20 4 -15 8 -19 8 -15 0 4 -6 3 -11 -3 -11 -5 0 -13 5 -16 10 -5 8 -11
7 -21 -1 -8 -6 -14 -8 -14 -4 0 4 -6 2 -14 -4 -8 -7 -12 -21 -8 -33 4 -16 2
-19 -9 -14 -8 4 -6 1 3 -7 10 -8 15 -17 12 -20 -8 -8 18 -3 34 6 7 5 14 2 18
-8 6 -14 8 -14 20 2 8 11 13 13 14 6 0 -7 8 -13 17 -13 13 0 14 -3 5 -12 -16
-16 -15 -31 1 -22 8 5 8 2 -2 -9 -11 -14 -11 -17 0 -17 10 0 10 -3 2 -11 -7
-7 -8 -20 -3 -34 6 -15 4 -27 -3 -34 -9 -9 -8 -14 3 -21 8 -6 10 -10 3 -10 -8
0 -8 -6 0 -24 10 -22 13 -22 25 -7 7 9 11 11 8 5 -3 -7 1 -15 10 -18 8 -3 12
-2 9 4 -4 6 5 10 20 10 17 0 24 4 19 11 -3 6 0 15 7 20 9 5 9 9 2 9 -6 0 -10
13 -9 30 1 17 -3 30 -8 30 -6 0 -5 4 3 9 8 5 10 14 6 21 -4 7 -2 16 6 21 8 5
9 9 3 9 -7 0 -10 31 -10 90 1 55 -3 90 -9 90 -5 0 -4 4 4 9 8 5 10 14 6 21 -4
7 -2 16 6 21 8 5 9 9 4 9 -6 0 -12 14 -13 31 -1 17 2 28 7 25 5 -3 4 5 -2 18
-9 19 -19 24 -49 23 -21 -1 -38 -5 -38 -10z"/>
<path d="M4117 2421 c-9 -12 -9 -13 1 -7 15 9 16 -6 0 -22 -9 -9 -9 -12 0 -12
10 0 11 -26 2 -50 -2 -3 -2 -8 -2 -11 1 -3 -23 -5 -53 -4 -30 2 -55 -2 -55 -7
0 -5 -6 -6 -12 -2 -10 6 -10 4 0 -8 10 -13 10 -17 0 -21 -10 -4 -10 -8 2 -16
8 -6 11 -11 5 -12 -5 0 1 -4 15 -8 15 -4 28 -3 32 3 5 7 8 7 8 -2 0 -7 5 -10
11 -7 5 4 20 4 32 1 17 -4 22 -13 23 -40 0 -20 -3 -33 -9 -29 -5 3 -4 -5 3
-17 8 -15 8 -20 1 -16 -6 4 -11 2 -11 -3 0 -6 5 -11 11 -11 5 0 8 -4 4 -9 -3
-5 0 -13 6 -17 8 -4 9 -3 5 4 -4 7 -2 12 3 12 6 0 11 -3 11 -7 0 -13 57 -9 69
5 9 9 9 12 0 12 -8 0 -8 4 1 15 9 11 9 15 1 15 -7 0 -9 5 -5 12 11 18 12 48 2
48 -5 0 -4 9 2 20 8 14 8 20 0 20 -7 0 -8 6 -1 18 6 11 6 24 1 32 -6 9 -5 17
3 22 9 6 8 10 -2 17 -12 8 -12 12 -2 24 8 11 9 17 1 22 -7 4 -8 11 -1 18 14
18 -9 32 -52 33 -22 0 -43 -6 -50 -15z"/>
<path d="M3833 2407 c-7 -15 -7 -29 -1 -40 6 -11 5 -17 -1 -17 -6 0 -7 -7 -4
-17 4 -10 2 -14 -4 -10 -7 4 -10 0 -8 -10 5 -35 -56 -106 -125 -144 -23 -13
-37 -25 -31 -27 6 -2 9 -8 5 -13 -3 -5 1 -9 9 -9 8 0 21 -10 29 -22 l15 -23
36 28 c20 15 39 27 43 27 10 0 44 41 44 53 0 6 3 7 7 4 3 -4 13 2 21 14 l14
20 16 -23 c20 -28 64 -64 74 -61 5 2 8 -2 8 -7 0 -5 5 -10 12 -10 6 0 20 -8
31 -17 11 -10 17 -12 13 -5 -5 7 -1 12 10 12 10 0 14 3 11 7 -4 3 0 11 8 17 9
6 17 21 19 32 4 17 0 21 -15 17 -11 -3 -19 0 -19 6 0 7 -4 9 -10 6 -5 -3 -10
-1 -10 5 0 7 -7 10 -14 7 -9 -4 -17 2 -21 14 -4 11 -9 18 -12 15 -11 -10 -72
78 -63 89 12 14 16 82 6 92 -11 11 -56 11 -56 0 0 -5 -6 -4 -13 2 -11 8 -16 6
-24 -12z"/>
<path d="M830 2410 c-13 -8 -15 -55 -15 -323 l0 -313 87 -1 c75 -1 88 2 89 16
5 107 2 251 -6 251 -6 0 -5 3 1 8 11 7 11 23 0 68 -8 30 6 38 26 15 12 -15 13
-22 5 -31 -9 -10 -9 -11 2 -5 11 6 13 3 9 -13 -4 -12 -2 -25 3 -28 5 -3 7 -10
4 -15 -4 -5 -1 -9 4 -9 6 0 11 -11 11 -24 0 -14 5 -28 10 -31 8 -5 7 -12 -2
-23 -7 -9 -8 -13 -2 -9 10 6 37 -61 34 -86 0 -4 7 -21 15 -37 9 -17 12 -30 8
-30 -5 0 -2 -4 6 -9 18 -11 163 -12 156 -1 -3 5 -1 10 5 12 11 3 22 38 24 75
0 12 6 21 11 20 6 -1 9 3 8 9 -1 7 9 40 22 74 14 35 22 67 19 71 -3 5 -1 9 5
9 6 0 8 7 5 15 -4 8 -1 15 4 15 6 0 9 9 7 20 -2 11 1 20 7 20 5 0 7 8 4 18 -5
14 -4 14 9 -2 16 -22 19 -36 7 -36 -11 0 -9 -84 3 -92 7 -5 7 -8 0 -8 -5 0
-10 -20 -10 -44 0 -24 3 -42 7 -40 4 3 6 -1 3 -8 -11 -29 -12 -78 -1 -82 8 -3
8 -5 0 -5 -6 -1 -9 -12 -7 -26 5 -23 8 -24 84 -24 50 0 81 5 86 12 12 19 10
621 -2 629 -16 12 -37 9 -29 -4 5 -7 3 -8 -6 -3 -17 11 -140 13 -146 3 -3 -4
-13 -4 -22 0 -31 15 -82 -2 -82 -27 0 -9 -6 -23 -12 -30 -11 -11 -10 -12 0 -6
12 6 12 3 1 -16 -7 -13 -12 -28 -11 -33 2 -4 -2 -14 -9 -22 -6 -7 -8 -18 -4
-24 3 -5 1 -10 -5 -10 -6 0 -8 -4 -5 -10 3 -5 1 -10 -5 -10 -6 0 -9 -4 -6 -9
4 -5 1 -22 -5 -38 -6 -15 -11 -40 -11 -55 0 -18 -4 -25 -13 -22 -11 5 -18 24
-31 88 -3 11 -9 26 -16 33 -6 7 -8 16 -5 20 4 3 2 12 -4 20 -6 7 -8 13 -3 13
5 0 4 4 -3 8 -7 4 -13 22 -15 40 -1 18 -6 32 -11 32 -5 0 -7 9 -4 20 4 15 -2
24 -21 34 -28 13 -86 16 -98 4 -3 -4 -17 -2 -31 3 -18 6 -30 6 -39 -2 -9 -7
-14 -8 -14 -1 0 12 -18 11 -39 -2 -10 -6 -12 -5 -7 2 9 14 -13 16 -34 2z"/>
<path d="M1890 2398 c0 -5 -3 -7 -7 -6 -28 8 -136 -60 -125 -78 1 -2 1 -5 1
-6 -5 -9 -5 -116 0 -113 4 2 13 -10 20 -26 7 -16 20 -29 29 -29 8 0 12 -3 9
-7 -7 -7 51 -38 66 -35 4 1 7 -2 7 -8 0 -5 9 -10 20 -10 11 0 20 -4 20 -10 0
-5 3 -10 8 -9 16 2 51 -14 47 -21 -3 -5 2 -15 10 -24 29 -28 1 -98 -40 -103
-11 -2 -29 -4 -40 -7 -11 -2 -26 2 -34 8 -12 9 -13 8 -7 -3 6 -9 0 -8 -17 4
-15 9 -31 14 -37 10 -5 -3 -10 1 -10 9 0 9 -6 16 -14 16 -8 0 -16 7 -20 15 -3
8 -11 15 -19 15 -9 0 -13 -14 -11 -51 1 -42 6 -56 25 -70 13 -9 27 -15 31 -13
4 3 8 0 8 -6 0 -6 5 -8 10 -5 6 3 10 2 10 -3 0 -13 33 -10 42 3 5 6 8 6 8 -1
0 -6 16 -11 35 -11 19 0 32 5 28 10 -3 5 4 4 16 -2 13 -7 21 -8 21 -2 0 5 9 8
20 6 11 -2 20 1 20 7 0 6 3 9 6 5 8 -7 65 44 59 53 -3 5 2 11 11 14 9 4 14 9
11 13 -4 3 -2 12 4 20 9 10 8 13 -2 13 -9 0 -10 3 -4 8 12 8 15 52 4 52 -4 0
-6 9 -4 20 2 11 0 18 -6 15 -5 -4 -9 1 -9 9 0 9 -11 23 -25 32 -14 9 -22 21
-18 28 3 6 3 8 -1 4 -5 -4 -33 6 -65 22 -31 16 -63 30 -71 32 -44 9 -85 108
-45 108 9 0 18 6 21 13 6 17 73 19 93 3 11 -8 13 -8 8 1 -5 8 -1 8 18 0 14 -7
25 -15 25 -19 0 -5 7 -8 16 -8 8 0 13 -4 10 -8 -2 -4 4 -9 15 -9 16 -2 18 3
14 28 -4 23 -2 29 7 23 10 -6 11 -5 1 8 -7 8 -11 17 -8 20 3 2 -7 15 -22 29
-14 13 -23 18 -19 12 5 -9 2 -11 -8 -7 -9 3 -16 11 -16 17 0 6 -3 7 -7 4 -3
-4 -13 -1 -21 6 -13 9 -14 9 -8 0 4 -7 2 -13 -3 -13 -6 0 -11 6 -11 13 0 8 -4
7 -10 -3 -5 -8 -10 -10 -10 -5 0 6 -13 10 -30 10 -16 0 -30 -3 -30 -7z"/>
<path d="M3078 2396 c-13 -10 -15 -15 -6 -24 9 -9 9 -12 -1 -12 -7 0 -9 -4 -6
-10 3 -5 0 -10 -7 -10 -7 -1 -2 -7 12 -15 14 -8 33 -12 44 -8 13 4 16 2 11 -7
-6 -9 -4 -11 6 -4 18 11 40 12 62 1 9 -4 17 -4 17 1 0 12 54 10 62 -2 4 -6 2
-14 -5 -18 -9 -6 -9 -8 1 -8 10 0 9 -4 -2 -16 -9 -8 -14 -20 -11 -25 4 -5 1
-9 -4 -9 -6 0 -11 -5 -11 -11 0 -6 -18 -29 -40 -50 -22 -22 -40 -37 -40 -34 0
3 -10 -3 -22 -14 -11 -11 -25 -18 -30 -15 -4 3 -8 0 -8 -6 0 -6 -4 -8 -10 -5
-5 3 -10 1 -10 -5 0 -8 -9 -10 -25 -6 -19 5 -23 3 -19 -9 4 -9 1 -15 -7 -15
-8 0 -2 -10 13 -24 15 -12 25 -26 21 -30 -12 -12 33 -6 46 7 11 10 13 9 7 -3
-7 -13 -6 -13 6 0 7 8 20 16 28 18 8 2 18 9 22 15 4 7 8 9 8 5 0 -11 36 19 97
82 29 30 51 60 49 67 -3 7 2 13 10 13 8 0 12 5 9 10 -3 6 2 10 12 11 10 0 13
3 6 6 -9 3 -10 10 -3 24 6 10 7 19 3 19 -4 0 -2 5 4 11 6 6 9 18 6 25 -3 8 -1
14 4 14 11 0 10 50 -1 69 -6 9 -11 9 -21 1 -9 -8 -15 -8 -20 0 -4 6 -13 7 -23
2 -19 -9 -92 -8 -117 2 -9 3 -14 2 -11 -2 2 -4 -17 -8 -44 -7 -26 0 -46 3 -43
8 6 10 1 8 -19 -7z"/>
<path d="M2119 2393 c-14 -3 -15 -11 -8 -41 4 -20 7 -39 6 -42 -3 -9 37 -6 51
4 7 5 12 4 12 -3 0 -9 5 -9 20 -1 14 8 20 8 20 0 0 -7 5 -8 13 -3 18 12 30 10
47 -6 11 -11 12 -15 2 -19 -7 -2 -9 -9 -5 -15 14 -22 14 -49 1 -41 -10 6 -10
5 -1 -7 7 -9 8 -20 3 -29 -5 -8 -6 -19 -2 -25 11 -17 10 -60 -2 -67 -7 -5 -7
-8 3 -8 11 0 11 -3 1 -15 -7 -8 -8 -15 -3 -15 5 0 9 -20 9 -45 0 -25 -5 -45
-11 -45 -7 0 -7 -3 0 -8 14 -9 14 -45 0 -54 -7 -5 -7 -8 0 -8 6 0 11 -9 12
-20 1 -12 -3 -18 -9 -14 -5 4 -3 -5 6 -19 17 -25 30 -28 54 -14 7 5 12 3 12
-4 0 -7 9 -2 19 10 16 18 18 28 10 48 -11 31 -11 36 1 28 6 -4 7 2 2 16 -5 12
-6 40 -2 60 4 21 3 36 -1 33 -11 -6 -11 -6 0 34 5 17 6 32 2 32 -9 0 -8 31 3
48 4 6 3 12 -3 12 -6 0 -6 11 -1 30 5 17 5 30 1 30 -9 0 -8 31 3 48 4 6 3 12
-3 12 -7 0 -7 7 0 23 10 23 39 33 39 15 0 -5 9 -4 20 2 15 8 20 8 20 -1 0 -8
4 -8 15 1 11 9 15 9 15 1 0 -9 5 -9 21 0 12 6 19 7 16 2 -3 -5 3 -9 13 -9 11
0 17 2 15 5 -3 2 1 11 8 19 6 9 7 13 2 10 -6 -4 -11 2 -11 12 0 14 4 16 18 9
9 -5 20 -14 24 -21 5 -7 2 -9 -7 -4 -10 6 -10 4 1 -6 8 -7 21 -23 28 -36 32
-57 38 -67 55 -86 9 -11 17 -26 17 -33 0 -7 5 -13 10 -13 6 0 10 -9 10 -20 0
-11 5 -20 10 -20 15 0 12 -16 -5 -34 -8 -8 -15 -19 -15 -25 0 -6 -5 -11 -10
-11 -6 0 -9 -6 -8 -12 2 -7 -3 -12 -10 -10 -8 1 -11 -2 -8 -7 3 -5 -2 -19 -12
-32 -10 -13 -21 -32 -25 -41 -3 -10 -11 -18 -17 -18 -6 0 -8 -4 -5 -10 3 -5 1
-10 -4 -10 -6 0 -11 -5 -11 -11 0 -6 -10 -25 -22 -42 -12 -17 -17 -27 -10 -23
7 4 12 3 12 -2 0 -10 30 -9 48 2 7 4 12 2 12 -5 0 -8 3 -9 13 0 8 6 18 7 22 3
5 -4 5 -2 2 4 -4 7 0 17 8 24 8 7 12 16 9 21 -3 5 -1 9 5 9 6 0 18 17 28 38 9
20 23 43 30 50 7 7 13 19 13 27 0 20 27 26 42 7 11 -13 11 -14 0 -8 -11 7 -11
4 0 -13 7 -12 16 -21 21 -21 4 0 5 -5 2 -10 -4 -6 4 -19 17 -30 13 -11 19 -19
15 -20 -8 0 27 -55 48 -75 12 -12 35 -13 53 -2 6 5 12 4 12 -2 0 -9 30 -10 31
0 1 17 -19 52 -53 90 -10 10 -15 19 -12 19 3 0 -3 13 -12 29 -10 17 -22 27
-27 24 -6 -3 -7 -1 -3 5 6 11 -27 68 -49 84 -7 5 -7 8 0 8 6 0 4 4 -3 8 -9 6
-8 16 6 45 10 21 21 34 25 31 6 -7 11 19 8 39 -1 5 3 6 9 2 5 -3 10 -1 10 6 0
6 8 18 18 26 10 9 11 12 2 7 -9 -4 -6 3 6 17 12 13 19 31 16 39 -2 8 -1 12 3
8 9 -9 55 54 55 74 0 9 -3 9 -10 -2 -5 -8 -10 -10 -10 -5 0 11 -56 12 -82 0
-10 -4 -15 -11 -12 -16 3 -5 0 -9 -7 -9 -7 0 -10 -3 -7 -6 4 -3 -2 -14 -13
-25 -11 -11 -17 -24 -14 -29 4 -6 1 -10 -5 -10 -6 0 -9 -4 -6 -9 3 -5 -1 -11
-9 -15 -8 -3 -15 -11 -15 -18 0 -7 -9 -24 -20 -38 -15 -19 -20 -21 -20 -8 0 9
-7 24 -16 32 -8 9 -12 16 -7 16 4 0 4 4 -2 8 -12 9 -44 61 -52 85 -3 9 -10 17
-15 17 -5 0 -6 5 -3 10 3 6 1 10 -5 10 -6 0 -9 4 -5 9 3 6 -6 6 -24 1 -16 -4
-32 -5 -36 -2 -10 11 -35 11 -35 0 0 -6 -6 -5 -15 2 -11 9 -15 9 -15 1 0 -7
-5 -9 -12 -4 -17 10 -68 11 -74 1 -3 -4 -14 -3 -25 2 -13 8 -19 7 -19 0 0 -7
-6 -8 -18 -1 -13 7 -23 6 -30 -1 -8 -8 -12 -8 -12 -2 0 9 -32 11 -50 4 -3 -1
-9 -1 -15 0 -31 7 -75 4 -75 -5 0 -5 -4 -5 -8 2 -5 8 -13 9 -22 3 -8 -5 -21
-5 -29 -1 -9 4 -23 6 -32 4z"/>
<path d="M3845 2081 c-3 -5 -17 -8 -30 -5 -14 2 -26 0 -26 -6 -3 -20 -4 -25
-12 -37 -5 -8 -4 -13 2 -13 6 0 11 -7 11 -16 0 -8 4 -13 9 -10 5 4 12 0 14 -6
4 -10 6 -9 6 1 1 11 4 11 16 1 8 -7 15 -8 15 -2 0 11 49 11 68 -1 6 -5 12 -4
12 1 0 11 49 10 68 -1 6 -5 12 -4 12 1 0 5 13 9 30 9 16 0 27 -4 25 -8 -6 -9
15 -6 31 4 7 4 17 0 24 -8 9 -11 9 -15 1 -15 -7 0 -10 -4 -7 -9 3 -4 -13 -5
-37 0 -27 5 -43 4 -46 -3 -2 -6 -7 -5 -12 3 -6 10 -9 10 -9 2 0 -9 -7 -10 -27
-2 -19 7 -28 6 -33 -2 -6 -8 -9 -7 -13 2 -4 10 -6 10 -6 2 -1 -9 -8 -10 -28
-2 -20 7 -28 6 -35 -3 -6 -10 -8 -10 -8 2 0 12 -2 12 -9 1 -5 -8 -11 -9 -15
-3 -7 12 -48 4 -58 -12 -4 -5 -4 -14 -1 -20 11 -17 11 -86 1 -79 -6 3 -5 -4 1
-15 6 -11 11 -23 11 -27 0 -3 -5 -3 -11 1 -8 4 -8 0 0 -15 11 -20 18 -21 231
-21 l220 0 0 31 c0 17 -7 37 -15 45 -8 9 -15 12 -15 7 0 -4 -70 -8 -155 -8
-85 0 -155 4 -155 8 0 5 -4 6 -9 3 -5 -4 -7 3 -4 13 5 19 29 21 71 6 7 -3 11
-1 8 3 -2 4 54 7 126 6 124 -2 130 -1 138 20 4 11 4 23 -1 24 -5 2 -6 8 -3 13
11 19 11 59 0 59 -6 0 -4 5 4 10 10 6 11 10 3 10 -7 0 -13 5 -13 11 0 5 4 8 8
5 5 -3 9 1 9 9 0 8 -6 15 -14 15 -7 0 -13 4 -13 9 0 10 -32 7 -49 -4 -5 -3
-12 -1 -15 4 -7 11 -25 9 -45 -3 -10 -6 -12 -5 -7 3 9 13 -29 12 -51 -2 -13
-8 -17 -2 -14 17 1 5 -4 5 -11 -1 -7 -6 -24 -9 -38 -8 -14 1 -31 -3 -39 -9
-11 -8 -13 -8 -8 0 4 8 -3 11 -23 10 -17 0 -30 -4 -30 -9 0 -4 -5 -5 -10 -2
-6 4 -8 11 -5 16 4 5 4 9 1 9 -3 0 -7 -4 -11 -9z"/>
<path d="M3153 1981 c-15 -11 -25 -104 -11 -95 5 3 8 1 8 -5 0 -5 -5 -13 -10
-16 -7 -4 -7 -12 -2 -18 4 -7 8 -26 7 -44 l-1 -31 220 1 221 2 0 45 c1 45 0
46 -27 42 -16 -3 -25 -9 -21 -15 4 -6 1 -7 -8 -1 -8 5 -36 10 -62 11 -37 3
-47 0 -41 -9 4 -7 -2 -5 -13 5 -13 11 -23 14 -27 8 -7 -10 -37 -8 -58 5 -7 5
-8 3 -3 -6 6 -10 2 -12 -15 -7 -13 3 -31 1 -39 -6 -12 -9 -13 -9 -7 1 4 7 2
12 -7 12 -8 0 -17 7 -21 15 -3 8 -2 15 2 15 4 0 7 11 7 25 0 14 -4 25 -9 25
-5 0 -3 6 3 14 9 11 9 16 -1 22 -15 10 -74 13 -85 5z"/>
</g>
</svg>
